<svg width="86" height="83" viewBox="0 0 86 83" fill="none" xmlns="http://www.w3.org/2000/svg">
<path d="M16.4562 81.3965C18.2628 82.7637 20.4601 82.2266 23.0968 80.3223L42.9698 65.7227L62.8917 80.3223C65.4796 82.2266 67.6769 82.7637 69.4835 81.3965C71.2413 80.0782 71.5831 77.8321 70.5089 74.8047L62.6476 51.4161L82.7159 37.0118C85.3527 35.2051 86.4757 33.2032 85.7433 31.0547C85.0597 29.0039 83.0089 27.9786 79.7863 28.0274L55.1769 28.2227L47.7062 4.6875C46.7296 1.6114 45.2159 0 42.9698 0C40.7726 0 39.2589 1.6114 38.2335 4.6875L30.7628 28.2227L6.15336 28.0274C2.93076 27.9786 0.928789 29.0039 0.196369 31.0547C-0.487221 33.2032 0.63583 35.2051 3.22376 37.0118L23.2921 51.4161L15.4308 74.8047C14.3566 77.8321 14.6984 80.0782 16.4562 81.3965ZM22.8527 72.6563C22.8038 72.5586 22.8038 72.5098 22.8527 72.3145L30.3234 51.2207C30.8605 49.6094 30.5675 48.3399 29.1027 47.3145L10.6456 34.7168C10.4991 34.5704 10.4503 34.5215 10.4991 34.4239C10.548 34.3262 10.5968 34.3262 10.7921 34.3262L33.1554 34.8145C34.8644 34.8633 35.9386 34.1797 36.4757 32.4707L42.7745 11.0352C42.8234 10.8399 42.8722 10.7911 42.9698 10.7911C43.0675 10.7911 43.1163 10.8399 43.1652 11.0352L49.464 32.4707C50.0011 34.1797 51.1241 34.8633 52.8331 34.8145L75.1476 34.3262C75.3429 34.3262 75.3917 34.3262 75.4406 34.4239C75.4894 34.5215 75.4406 34.5704 75.2941 34.7168L56.837 47.3145C55.3722 48.3399 55.0792 49.6094 55.6652 51.2207L63.087 72.3145C63.1359 72.5098 63.1359 72.5586 63.087 72.6563C63.0382 72.7539 62.9406 72.6563 62.7941 72.5586L45.0695 58.9356C43.7511 57.8614 42.2374 57.8614 40.8702 58.9356L23.1945 72.5586C23.048 72.6563 22.9503 72.7539 22.8527 72.6563Z" fill="black"/>
</svg>
